<?xml version="1.0" encoding="iso-8859-1"?>
<!-- Uploaded to: SVG Repo, www.svgrepo.com, Generator: SVG Repo Mixer Tools -->
<!DOCTYPE svg PUBLIC "-//W3C//DTD SVG 1.1//EN" "http://www.w3.org/Graphics/SVG/1.1/DTD/svg11.dtd">
<svg fill="#000000" version="1.1" id="Capa_1" xmlns="http://www.w3.org/2000/svg" xmlns:xlink="http://www.w3.org/1999/xlink" 
	 width="800px" height="800px" viewBox="0 0 312.762 312.762"
	 xml:space="preserve">
<g>
	<path d="M290.129,91.697V40.3c0-2.902-2.351-5.257-5.256-5.257H271.44V5.257c0-2.902-2.351-5.257-5.256-5.257H44.244
		c-2.905,0-5.256,2.354-5.256,5.257v29.786H27.889c-2.905,0-5.256,2.354-5.256,5.257c0,2.902,2.351,5.256,5.256,5.256h11.098v29.787
		c0,2.902,2.351,5.256,5.256,5.256h221.937c2.905,0,5.257-2.354,5.257-5.256V45.556h8.176v42.797l-126.632,59.325
		c-1.846,0.866-3.027,2.719-3.027,4.759v25.317h-13.432c-2.905,0-5.256,2.354-5.256,5.257v124.494c0,2.902,2.351,5.257,5.256,5.257
		h38.547c2.905,0,5.257-2.354,5.257-5.257V183.011c0-2.902-2.352-5.257-5.257-5.257h-14.603V155.78l126.638-59.325
		C288.948,95.59,290.129,93.736,290.129,91.697z M260.925,70.086H49.5V10.513h211.425V70.086z M169.812,302.249h-28.034V188.267
		h28.034V302.249z"/>
	<path d="M161.053,267.497c2.905,0,5.256-2.354,5.256-5.257v-64.142c0-2.902-2.351-5.256-5.256-5.256
		c-2.906,0-5.257,2.354-5.257,5.256v64.142C155.796,265.143,158.147,267.497,161.053,267.497z"/>
	<path d="M250.997,14.018h-82.937c-2.905,0-5.256,2.354-5.256,5.256s2.351,5.256,5.256,5.256h82.937
		c2.905,0,5.256-2.354,5.256-5.256S253.902,14.018,250.997,14.018z"/>
</g>
</svg>